<svg xmlns="http://www.w3.org/2000/svg" viewBox="0 0 188.29 120.13"><defs><style>.cls-1{fill:#07c2f1;}.cls-2{fill:#0ac4e5;}.cls-3{fill:#7ac943;}.cls-4{font-size:21px;fill:#b3b3b3;stroke:gray;stroke-miterlimit:10;stroke-width:0.5px;font-family:MyriadPro-Regular, Myriad Pro;}.cls-5{letter-spacing:-0.01em;}</style></defs><g id="Слой_2" data-name="Слой 2"><g id="Слой_1-2" data-name="Слой 1"><path class="cls-1" d="M39.63,14.55c-12.38,3.48-21,11-24.5,23.57a32.6,32.6,0,0,0,22.4,40.09c.94.29,1.9.56,2.85.83a18.3,18.3,0,0,1,0,13.89C21,91.1,4.29,74.94.69,54.53a46.77,46.77,0,0,1,34.2-53,20.42,20.42,0,0,1,2.94-.37c1.68,0,2.36,0,2.52,1.25C40.85,6.45,41.79,10.6,39.63,14.55Z"/><path class="cls-1" d="M79.1,57.72c8.62-13.6,17.5-27,26.8-40.18a36.16,36.16,0,0,1,13.53-11.4c1.4,1.23,1.17,2.92,1.21,4.5.09,3.59-.15,7.2.49,10.77C114.2,28.3,109.82,37,104.18,44.84c-.71,1-1,1.87-.21,3,6.23,8.72,10.67,18.75,19.07,25.86-.51,4.93.82,10-1.28,14.82-7.76-3.36-13.64-8.92-18.33-15.82-2.91-4.3-5.65-8.72-8.6-13.31-4.47,5-6.57,11.31-11.29,15.71-3.59-1-4.07-4.15-4.44-7A36.53,36.53,0,0,1,79.1,57.72Z"/><path class="cls-2" d="M121.76,88.51c.46-4.94-1.13-10.05,1.28-14.82,16.09,10.47,34.19,6,44.05-5.24a6.91,6.91,0,1,1,10.42,9.09C163.71,93.72,139.27,98.13,121.76,88.51Z"/><path class="cls-1" d="M79.1,57.72c1.49,2.68.82,5.59.8,8.39a12.6,12.6,0,0,0,3.64,9C76.12,85.57,65.68,91,53.28,93a32.58,32.58,0,0,1-12.9-.1V79C55.22,81.15,66.83,76.16,75,63.39,76.2,61.42,77.71,59.61,79.1,57.72Z"/><path class="cls-1" d="M159.11,3.37c15.95,6,25.23,17.79,29,34.1A6.56,6.56,0,0,1,183,45.34c-4,.88-7.35-1-8.41-5.31a34.72,34.72,0,0,0-16.93-22.52C157.61,12.74,157.36,8,159.11,3.37Z"/><path class="cls-1" d="M159.11,3.37c-.06,4.76.37,9.57-1.48,14.14-9.67-4.4-19.4-5-29.26-.58a29.2,29.2,0,0,0-7.24,4.48c-2-.29-1.58-1.86-1.6-3.14-.06-4-.07-8.09-.1-12.13C127.2,1.21,135.82-.33,144.82.08,149.73.3,154.64,1,159.11,3.37Z"/><path class="cls-1" d="M39.63,14.55V4.15c0-1.37.18-2.84-1.79-3C52-2,64.63,1.53,75.89,10.31c3,2.38,3.19,6.43.91,9.37a6.88,6.88,0,0,1-9.68,1.2C60.53,16.16,53.33,13.56,45.18,14,43.32,14,41.48,14.35,39.63,14.55Z"/><path class="cls-3" d="M144.36,31.61c3.22-.16,4.49,1.55,4.54,4.78.09,5.52.18,5.52,5.45,5.67,3.86.11,5,1.26,5,4.83,0,3.37-1.73,4.69-4.92,4.56-1.11,0-2.24,0-3.36,0-1.57-.07-2.28.61-2.21,2.21.06,1.24,0,2.49,0,3.73.07,3.39-1.74,4.59-4.93,4.53s-4.4-1.58-4.46-4.65c-.11-5.49-.19-5.57-6-5.8-3.14-.13-4.48-1.6-4.43-4.68.05-3.59,1.11-4.63,5.09-4.73,5.28-.13,5.28-.13,5.39-5.37C139.6,32.7,140.62,31.6,144.36,31.61Z"/><path class="cls-3" d="M45,51.43c-3.6,0-7.21,0-10.81,0-3.18,0-4.29-1.84-4.25-4.84s1.28-4.48,4.21-4.49q11-.06,22,0c3.17,0,4.37,1.9,4.32,4.84-.05,2.79-1.34,4.47-4.28,4.5C52.41,51.46,48.68,51.43,45,51.43Z"/><text class="cls-4" transform="translate(19.96 109.95)">SVG <tspan class="cls-5" x="40.09" y="0">L</tspan><tspan x="49.71" y="0">ogo (Lab 6)</tspan></text></g></g></svg>