<svg xmlns="http://www.w3.org/2000/svg" viewBox="0 0 336.89 237.78"><defs><style>.cls-1,.cls-2{fill:#2b2929;}.cls-2{fill-rule:evenodd;}</style></defs><g id="Слой_2" data-name="Слой 2"><g id="Слой_1-2" data-name="Слой 1"><path class="cls-1" d="M159.83,93.48l3.08-4.07,4.59,3.45-8.16,10.82,0,5.32-5.33-7.58c-1.23-1.75-2.85-4.11-4.46-6.46-1.47-2.14-2.93-4.26-4.36-6.3L150,85.34c.81,1.15,2.57,3.71,4.33,6.26l.2-1.49c.28-2.09.55-4.08.67-5.61l5.73.45c-.12,1.64-.41,3.74-.7,5.93-.12.86-.24,1.73-.35,2.6Zm17.23,0L174,89.41l-4.6,3.45,8.16,10.82L177.5,109l5.33-7.58c1.23-1.75,2.85-4.11,4.46-6.46,1.47-2.14,2.93-4.26,4.36-6.3l-4.71-3.32c-.81,1.15-2.57,3.71-4.33,6.26l-.2-1.49c-.28-2.09-.55-4.08-.67-5.61L176,85c.12,1.64.41,3.74.7,5.93.12.86.24,1.73.35,2.6Z"/><path class="cls-2" d="M166.86,71.26l-12.33-8.55L142.2,54.15,140.59,53l.62-1.85,4.71-13.84,4.72-13.84.6-1.76,17.09-1.89,17.1,1.89.6,1.76,4.71,13.84,1,3.09,13-11.84c1.74-3.1,3.79-6.72,6-10.59q3.14-5.52,6.31-11.08l.47-.83.87-.37,118.46-.07-74.76,60.2-25,30.19-.55.66-.83.24L206,105.43l-1.6.45-1.16-1.2L196,97.23l-9,13.36,6.58,19.09.65,1.9-1.62,1.22-22.41,16.82-1.66,1.25-1.66-1.25L144.5,132.8l-1.62-1.22.66-1.9,6.57-19.09-9-13.36-7.18,7.45-1.16,1.2-1.6-.45L101.38,97l-.83-.24-.55-.66L75,65.86,0,5.74l78.82,0h39.89l.88.37.46.82,12.61,22L145,40.1l-2,5.73,0,0-14.38-13.1-.33-.3-.22-.37L115.71,10.49,14.43,10.05l65.47,53,23.82,28.79,27.37,7.79,8.4-8.72,2.38-2.47,1.91,2.84,11.71,17.34.77,1.15-.45,1.3-6.37,18.51L168.57,144l19.13-14.36-6.37-18.51-.45-1.3.77-1.15,11.71-17.34,1.92-2.84,2.38,2.47,8.4,8.72,27.36-7.79,23.83-28.79,64.4-52.38-100.22-.19-5.84,10.25c-1.89,3.33-3.9,6.9-6.18,11l-.22.38-.33.31L194.15,45.79l-.41.37,1.71,5,.63,1.85-1.61,1.11-12.34,8.56L169.8,71.26l-1.47,1-1.47-1Zm17-55-5.74,2.55-9.88-1.09-9.93,1.09-5.76-2.55-.27-.12,0-11.86.79.34,1.66.74,1.87.83.86.38.27.12.24,6.08,2.19,1,.15-.07.51-.23,4-1.78V3.31L168.24,0l3.36,3.31,0,8.35,4,1.78.51.23.11.05,2.17-1,.23-6.08.27-.12.86-.38,1.87-.83,1.66-.74.8-.34V16.13l-.27.12ZM166.48,31.64l-10.86-4.8,12.71-1.79,12.85,1.81-10.82,4.79-.28.12,0,11.87.79-.35,1.67-.74,1.86-.83.87-.38.27-.12.23-6.08,6.8-3,.78-.34L185.83,39l4.09,12-10.73,7.44L168.33,66l-10.86-7.54L146.74,51l4.09-12,2.49-7.31.08,0,.86.38,6.79,3,.23,6,.27.12.86.39,1.87.82,1.66.74.79.35,0-11.75-.27-.12Z"/><path class="cls-1" d="M37,155.5h4.79v34.22H37ZM44,179.09A6.44,6.44,0,0,1,41.5,176l.33-5.09a5.73,5.73,0,0,0,.56,2.67A3.86,3.86,0,0,0,44,175.28a5.3,5.3,0,0,0,2.59.59,4.7,4.7,0,0,0,3.67-1.45,5.87,5.87,0,0,0,1.3-4.06v-5.28a6.08,6.08,0,0,0-1.3-4.14,4.62,4.62,0,0,0-3.67-1.48A5.54,5.54,0,0,0,44,160a3.82,3.82,0,0,0-1.63,1.65,5.6,5.6,0,0,0-.56,2.62l-.5-4.69a8.47,8.47,0,0,1,2.89-3.29,7,7,0,0,1,4-1.16,8.07,8.07,0,0,1,4.42,1.16,7.3,7.3,0,0,1,2.8,3.38,13.57,13.57,0,0,1,1,5.37v5.3a12.81,12.81,0,0,1-1,5.29A7.29,7.29,0,0,1,52.49,179a8.6,8.6,0,0,1-4.55,1.16A7.22,7.22,0,0,1,44,179.09Z"/><path class="cls-1" d="M63.15,155.5h4.79v24.33H63.15Zm11.79,4.59a5.86,5.86,0,0,0-2.22-.4A4.76,4.76,0,0,0,69.19,161a4.67,4.67,0,0,0-1.25,3.48l-.5-4.69a9,9,0,0,1,2.91-3.39,6.9,6.9,0,0,1,3.94-1.2,8.92,8.92,0,0,1,3,.48,6.61,6.61,0,0,1,2.35,1.42l-3.11,4.21A4.11,4.11,0,0,0,74.94,160.09Z"/><path class="cls-1" d="M87.08,178.94a8.2,8.2,0,0,1-3.43-3.63,12.7,12.7,0,0,1-1.18-5.73v-4A12.48,12.48,0,0,1,83.65,160a8.14,8.14,0,0,1,3.43-3.58,12.53,12.53,0,0,1,10.83,0,8.16,8.16,0,0,1,3.44,3.58,12.61,12.61,0,0,1,1.18,5.66v4a12.69,12.69,0,0,1-1.18,5.69,8.26,8.26,0,0,1-3.44,3.6,12.44,12.44,0,0,1-10.83,0Zm9.3-4.88a6.5,6.5,0,0,0,1.37-4.41v-4a6.4,6.4,0,0,0-1.37-4.38,5.63,5.63,0,0,0-7.76,0,6.35,6.35,0,0,0-1.37,4.38v4a6.45,6.45,0,0,0,1.37,4.41,5.58,5.58,0,0,0,7.76,0Z"/><path class="cls-1" d="M107.45,155.5h12.17v4.08H107.45Zm2.58-3.31a6.92,6.92,0,0,1,1.49-4.84,6,6,0,0,1,4.58-1.6h3.52v4.55h-3.43a1.18,1.18,0,0,0-1,.51,2.36,2.36,0,0,0-.35,1.34v27.68H110Z"/><path class="cls-1" d="M128,178.91a8.5,8.5,0,0,1-3.65-3.71,13,13,0,0,1-1.25-5.92v-2.74a14.29,14.29,0,0,1,1.21-6.17,8.62,8.62,0,0,1,3.5-3.89,10.83,10.83,0,0,1,5.53-1.33,8.78,8.78,0,0,1,5.21,1.52,9.52,9.52,0,0,1,3.29,4.41A18.76,18.76,0,0,1,143,168v1.59H126.6v-3.84h11.86a8.14,8.14,0,0,0-1.54-4.63,4.31,4.31,0,0,0-3.55-1.65,5.16,5.16,0,0,0-4.2,1.78,7.61,7.61,0,0,0-1.49,5v3.09a6.32,6.32,0,0,0,1.59,4.64,6.05,6.05,0,0,0,4.52,1.62,7.61,7.61,0,0,0,2.89-.58,8.4,8.4,0,0,0,2.55-1.65l3.14,3.15a13.23,13.23,0,0,1-4.05,2.68,11.62,11.62,0,0,1-4.53,1A12.07,12.07,0,0,1,128,178.91Z"/><path class="cls-1" d="M154.13,179.76a15.11,15.11,0,0,1-3.53-1.27,13.9,13.9,0,0,1-3-2.11l2.83-3.49a15.94,15.94,0,0,0,3.92,2.25,10.57,10.57,0,0,0,3.84.75,8.14,8.14,0,0,0,4.25-.88,2.89,2.89,0,0,0,1.42-2.64,2.06,2.06,0,0,0-.77-1.75,4.27,4.27,0,0,0-1.92-.79q-1.16-.2-3.24-.36h-.4l-.39,0h-.38a19.74,19.74,0,0,1-4-.69,5.52,5.52,0,0,1-2.73-1.89,6.31,6.31,0,0,1-1.09-4,8,8,0,0,1,1.06-4.29,6.41,6.41,0,0,1,3.14-2.57,13.84,13.84,0,0,1,5.22-.85,17.58,17.58,0,0,1,3.62.35,15.84,15.84,0,0,1,6.32,2.79l-2.88,3.49a16.12,16.12,0,0,0-3.6-1.76,11,11,0,0,0-3.46-.58,6.46,6.46,0,0,0-3.65.83,2.81,2.81,0,0,0-1.22,2.49,1.7,1.7,0,0,0,.69,1.48,4,4,0,0,0,1.75.66c.7.11,1.7.2,3,.28l.29,0,.32,0h.14l.14,0a20.28,20.28,0,0,1,4.34.68,5.85,5.85,0,0,1,3,2,6.91,6.91,0,0,1,1.22,4.4,7.81,7.81,0,0,1-1.13,4.35,6.79,6.79,0,0,1-3.39,2.59,15.92,15.92,0,0,1-5.68.87A18.49,18.49,0,0,1,154.13,179.76Z"/><path class="cls-1" d="M179,179.76a15.11,15.11,0,0,1-3.53-1.27,13.9,13.9,0,0,1-3-2.11l2.83-3.49a16.12,16.12,0,0,0,3.92,2.25,10.57,10.57,0,0,0,3.84.75,8.14,8.14,0,0,0,4.25-.88,2.89,2.89,0,0,0,1.42-2.64,2.06,2.06,0,0,0-.77-1.75,4.27,4.27,0,0,0-1.92-.79q-1.15-.2-3.24-.36h-.4l-.39,0h-.38a19.74,19.74,0,0,1-4-.69,5.52,5.52,0,0,1-2.73-1.89,6.31,6.31,0,0,1-1.09-4,8,8,0,0,1,1.06-4.29A6.41,6.41,0,0,1,178,156a13.84,13.84,0,0,1,5.22-.85,17.74,17.74,0,0,1,3.63.35,16.15,16.15,0,0,1,3.29,1,15.88,15.88,0,0,1,3,1.75l-2.88,3.49a16.12,16.12,0,0,0-3.6-1.76,11,11,0,0,0-3.46-.58,6.46,6.46,0,0,0-3.65.83,2.81,2.81,0,0,0-1.22,2.49,1.7,1.7,0,0,0,.69,1.48,4,4,0,0,0,1.75.66c.7.11,1.7.2,3,.28l.29,0,.32,0h.14l.14,0a20.49,20.49,0,0,1,4.35.68,5.86,5.86,0,0,1,3,2,6.91,6.91,0,0,1,1.22,4.4,7.81,7.81,0,0,1-1.13,4.35,6.79,6.79,0,0,1-3.39,2.59,15.92,15.92,0,0,1-5.68.87A18.55,18.55,0,0,1,179,179.76Z"/><path class="cls-1" d="M199.35,145.75h4.78v4.78h-4.78Zm0,9.75h4.78v24.33h-4.78Z"/><path class="cls-1" d="M215.31,178.94a8.2,8.2,0,0,1-3.43-3.63,12.7,12.7,0,0,1-1.19-5.73v-4a12.48,12.48,0,0,1,1.19-5.66,8.14,8.14,0,0,1,3.43-3.58,12.53,12.53,0,0,1,10.83,0,8.14,8.14,0,0,1,3.43,3.58,12.48,12.48,0,0,1,1.19,5.66v4a12.55,12.55,0,0,1-1.19,5.69,8.24,8.24,0,0,1-3.43,3.6,12.44,12.44,0,0,1-10.83,0Zm9.29-4.88a6.45,6.45,0,0,0,1.37-4.41v-4a6.35,6.35,0,0,0-1.37-4.38,5.62,5.62,0,0,0-7.75,0,6.36,6.36,0,0,0-1.38,4.38v4a6.46,6.46,0,0,0,1.38,4.41,5.57,5.57,0,0,0,7.75,0Z"/><path class="cls-1" d="M237.55,155.5h4.78v24.33h-4.78Zm14.77,9.58a5.57,5.57,0,0,0-1.34-4,4.92,4.92,0,0,0-3.75-1.41,5,5,0,0,0-3.62,1.25,4.64,4.64,0,0,0-1.28,3.49l-.49-4.69a8.7,8.7,0,0,1,2.94-3.4,7.2,7.2,0,0,1,4-1.19,7.53,7.53,0,0,1,6.13,2.59q2.18,2.58,2.17,7.32v14.77h-4.78Z"/><path class="cls-1" d="M265.42,178.31c-1.48-1.24-2.23-3.12-2.23-5.66a6.85,6.85,0,0,1,2-5.41q2-1.8,6.17-1.8h6.91l.33,3.84h-7.22a4.11,4.11,0,0,0-2.8.83,3.24,3.24,0,0,0-.93,2.54,3.17,3.17,0,0,0,1.23,2.75,6.43,6.43,0,0,0,3.74.89,10.8,10.8,0,0,0,4.09-.59,1.93,1.93,0,0,0,1.35-1.83l.49,3.43a5.57,5.57,0,0,1-1.56,1.61,6.74,6.74,0,0,1-2.14,1,11,11,0,0,1-2.74.32C269.15,180.18,266.9,179.56,265.42,178.31ZM278.1,164.4a5.13,5.13,0,0,0-1.28-3.71,4.8,4.8,0,0,0-3.62-1.32,9.22,9.22,0,0,0-2.85.44,8.55,8.55,0,0,0-2.47,1.24l-3.49-2.39a9.17,9.17,0,0,1,3.64-2.59,13.33,13.33,0,0,1,5-.92,11.59,11.59,0,0,1,5.18,1.06,7.41,7.41,0,0,1,3.28,3.1,9.92,9.92,0,0,1,1.13,4.88v15.64H278.1Z"/><path class="cls-1" d="M294.69,173.55a2.13,2.13,0,0,0,.39,1.37,1.32,1.32,0,0,0,1.09.48h2.25v4.54h-2.81a5.32,5.32,0,0,1-4.21-1.68,7,7,0,0,1-1.49-4.76V145.75h4.78Z"/><path class="cls-1" d="M45.63,203.35h6.43v34.08H45.63Zm2.32,0H68.46v6.19H48Zm0,14.06H65.88v6.19H48Zm0,13.83H68.46v6.19H48Z"/><path class="cls-1" d="M74.32,203.35h6.42v34.08H74.32Zm3.24,27.89h8.18a7.18,7.18,0,0,0,4.89-1.52,5.45,5.45,0,0,0,1.74-4.32v-10a5.41,5.41,0,0,0-1.74-4.31,7.13,7.13,0,0,0-4.89-1.52H77.56v-6.19h8a16.71,16.71,0,0,1,7.27,1.43A10.05,10.05,0,0,1,97.45,209,13.07,13.07,0,0,1,99,215.56v9.66a13.08,13.08,0,0,1-1.52,6.42A10.24,10.24,0,0,1,93,235.9a16.31,16.31,0,0,1-7.41,1.53h-8Z"/><path class="cls-1" d="M110.11,236.29a9.88,9.88,0,0,1-4.24-4.34,14.87,14.87,0,0,1-1.45-6.85V203.35h6.42v21.91a6.24,6.24,0,0,0,1.57,4.55,5.87,5.87,0,0,0,4.43,1.62,5.94,5.94,0,0,0,4.46-1.62,6.21,6.21,0,0,0,1.58-4.55V203.35h6.43V225.1a14.74,14.74,0,0,1-1.47,6.85,9.93,9.93,0,0,1-4.26,4.34,16,16,0,0,1-13.47,0Z"/><path class="cls-1" d="M140.37,236.29a9.94,9.94,0,0,1-4.22-4.34,14.94,14.94,0,0,1-1.45-6.88v-9.35a15,15,0,0,1,1.45-6.88,10.05,10.05,0,0,1,4.22-4.34A13.77,13.77,0,0,1,147,203a11.8,11.8,0,0,1,5.74,1.38,11.31,11.31,0,0,1,4.18,4,17.54,17.54,0,0,1,2.29,6.36h-6.66a8.73,8.73,0,0,0-1.16-2.88,5.52,5.52,0,0,0-1.9-1.83,5,5,0,0,0-2.49-.63,6,6,0,0,0-3.08.74,4.82,4.82,0,0,0-1.93,2.15,8.07,8.07,0,0,0-.67,3.41v9.35a7.93,7.93,0,0,0,.67,3.4,4.82,4.82,0,0,0,1.93,2.15,6.05,6.05,0,0,0,3.08.74,5.21,5.21,0,0,0,2.53-.62,5.29,5.29,0,0,0,1.89-1.82,8.31,8.31,0,0,0,1.13-2.91h6.66a17.72,17.72,0,0,1-2.31,6.37,11.45,11.45,0,0,1-4.17,4,11.73,11.73,0,0,1-5.73,1.38A13.88,13.88,0,0,1,140.37,236.29Z"/><path class="cls-1" d="M173.44,203.35h4.08l13,34.08h-6.92l-8.15-23.28-8.16,23.28h-6.91Zm-6.77,22.43H184.6V232H166.67Z"/><path class="cls-1" d="M189.14,203.35h25v6.19h-25Zm9.28,2.79h6.43v31.29h-6.43Z"/><path class="cls-1" d="M224.06,237.43h-6.65V203.35h6.65Z"/><path class="cls-1" d="M236.31,236.22a10.85,10.85,0,0,1-4.37-4.41,13.6,13.6,0,0,1-1.55-6.59v-9.66a13.63,13.63,0,0,1,1.55-6.6,10.77,10.77,0,0,1,4.37-4.4,14.45,14.45,0,0,1,13.06,0,10.83,10.83,0,0,1,4.37,4.4,13.63,13.63,0,0,1,1.54,6.6v9.66a13.59,13.59,0,0,1-1.54,6.59,10.91,10.91,0,0,1-4.37,4.41,14.45,14.45,0,0,1-13.06,0Zm9.57-5.6a5,5,0,0,0,2-2.1,6.61,6.61,0,0,0,.72-3.14v-10a6.65,6.65,0,0,0-.72-3.15,5,5,0,0,0-2-2.09,6.63,6.63,0,0,0-6.09,0,5.11,5.11,0,0,0-2,2.09,6.77,6.77,0,0,0-.71,3.15v10a6.73,6.73,0,0,0,.71,3.14,5.08,5.08,0,0,0,2,2.1,6.63,6.63,0,0,0,6.09,0Z"/><path class="cls-1" d="M261.61,203.35h7.85l12.68,26.11-.56.61V203.35h6.14V237.4h-7.9l-12.63-25.71.56-.61V237.4h-6.14Z"/><text/></g></g></svg>